# xmcd
#
# Track frame offsets: 
#        150
#        19235
#        43895
#        61630
#        81137
#        100927
#        122175
#        138375
#        163227
#        183484
#        204122
#
# Disc length: 2993 seconds
#
# Revision: 0
# Processed by: cddbd v1.5PL3 Copyright (c) Steve Scherf et al.
# Submitted via: ExactAudioCopy v0.95a3
#
DISCID=930baf0b
DTITLE=Hellbillies - Niende
DYEAR=2004
DGENRE=Folk/Rock
TTITLE0=Råka tå ei pil
TTITLE1=Sju
TTITLE2=Skulde vore ein rikmann
TTITLE3=Mikrobølgeliv
TTITLE4=Hei, hei advokat
TTITLE5=Kvilestein
TTITLE6=Dyrt å såp
TTITLE7=Innst i øyra
TTITLE8=For sein
TTITLE9=Fønvind
TTITLE10=Rir på ein rein
EXTD=
EXTT0=
EXTT1=
EXTT2=
EXTT3=
EXTT4=
EXTT5=
EXTT6=
EXTT7=
EXTT8=
EXTT9=
EXTT10=
PLAYORDER=
